<svg xmlns="http://www.w3.org/2000/svg" viewBox="0 0 36 36">
  <!-- Fondo circular teal -->
  <circle cx="18" cy="18" r="18" fill="#009A93"/>
  <!-- Escudo contorno exterior -->
  <path d="M18 4L30 9V19C30 26.5 18 32.5 18 32.5C18 32.5 6 26.5 6 19V9L18 4Z"
        fill="white" opacity="0.95"/>
  <!-- Interior escudo (fondo teal) -->
  <path d="M18 7.5L27.5 11.5V19C27.5 24.5 18 29.5 18 29.5C18 29.5 8.5 24.5 8.5 19V11.5L18 7.5Z"
        fill="#009A93"/>
  <!-- Cuadrante sup-izq: blanco -->
  <rect x="10.5" y="13" width="6.5" height="6" rx="1" fill="white" opacity="0.95"/>
  <!-- Cuadrante sup-der: naranja -->
  <rect x="19"   y="13" width="6.5" height="6" rx="1" fill="#E37200"/>
  <!-- Cuadrante inf-izq: naranja -->
  <rect x="10.5" y="20" width="6.5" height="4" rx="1" fill="#E37200"/>
  <!-- Cuadrante inf-der: blanco -->
  <rect x="19"   y="20" width="6.5" height="4" rx="1" fill="white" opacity="0.95"/>
  <!-- Divisores -->
  <line x1="18"   y1="13"   x2="18"   y2="24"   stroke="#009A93" stroke-width="0.8"/>
  <line x1="10.5" y1="19.5" x2="25.5" y2="19.5" stroke="#009A93" stroke-width="0.8"/>
</svg>
